<?xml version="1.0" encoding="UTF-8" standalone="no"?>
<!-- Created with Inkscape (http://www.inkscape.org/) -->

<svg
   xmlns:dc="http://purl.org/dc/elements/1.1/"
   xmlns:cc="http://creativecommons.org/ns#"
   xmlns:rdf="http://www.w3.org/1999/02/22-rdf-syntax-ns#"
   xmlns:svg="http://www.w3.org/2000/svg"
   xmlns="http://www.w3.org/2000/svg"
   xmlns:sodipodi="http://sodipodi.sourceforge.net/DTD/sodipodi-0.dtd"
   xmlns:inkscape="http://www.inkscape.org/namespaces/inkscape"
   width="72.176857"
   height="36"
   id="svg4084"
   version="1.1"
   inkscape:version="0.92.3 (2405546, 2018-03-11)"
   inkscape:export-filename="/home/brad/Projects/Money Chick/assets/images/user/treloar_digital.png"
   inkscape:export-xdpi="360"
   inkscape:export-ydpi="360"
   sodipodi:docname="logo.svg">
  <defs
     id="defs4086" />
  <sodipodi:namedview
     id="base"
     pagecolor="#ffffff"
     bordercolor="#666666"
     borderopacity="1.0"
     inkscape:pageopacity="0.0"
     inkscape:pageshadow="2"
     inkscape:zoom="4.8551524"
     inkscape:cx="34.806745"
     inkscape:cy="17.100925"
     inkscape:document-units="px"
     inkscape:current-layer="text849-2"
     showgrid="true"
     fit-margin-top="0"
     fit-margin-left="0"
     fit-margin-right="0"
     fit-margin-bottom="0"
     inkscape:window-width="1920"
     inkscape:window-height="1023"
     inkscape:window-x="0"
     inkscape:window-y="33"
     inkscape:window-maximized="1"
     inkscape:snap-bbox="false"
     inkscape:snap-nodes="true"
     inkscape:bbox-nodes="true"
     showguides="false">
    <inkscape:grid
       type="xygrid"
       id="grid4312"
       originx="-303.35156"
       originy="-140.11133" />
  </sodipodi:namedview>
  <metadata
     id="metadata4089">
    <rdf:RDF>
      <cc:Work
         rdf:about="">
        <dc:format>image/svg+xml</dc:format>
        <dc:type
           rdf:resource="http://purl.org/dc/dcmitype/StillImage" />
        <dc:title></dc:title>
      </cc:Work>
    </rdf:RDF>
  </metadata>
  <g
     inkscape:label="Layer 1"
     inkscape:groupmode="layer"
     id="layer1"
     transform="translate(157.07379,-111.55145)">
    <g
       aria-label="ALKALINE"
       style="color:#000000;font-style:normal;font-variant:normal;font-weight:normal;font-stretch:normal;line-height:0%;font-family:Sanchez;-inkscape-font-specification:Sanchez;letter-spacing:0px;word-spacing:0px;clip-rule:nonzero;display:inline;overflow:visible;visibility:visible;opacity:1;isolation:auto;mix-blend-mode:normal;color-interpolation:sRGB;color-interpolation-filters:linearRGB;solid-color:#000000;solid-opacity:1;fill:#ffffff;fill-opacity:1;fill-rule:nonzero;stroke:none;stroke-width:0.49999994;stroke-linecap:butt;stroke-linejoin:miter;stroke-miterlimit:4;stroke-dasharray:none;stroke-dashoffset:0;stroke-opacity:1;marker:none;color-rendering:auto;image-rendering:auto;shape-rendering:auto;text-rendering:auto;enable-background:accumulate"
       id="text3765-18-7-4-2-8-8">
      <g
         aria-label="bootstrap_base"
         style="font-style:normal;font-variant:normal;font-weight:normal;font-stretch:normal;font-size:30.17198753px;line-height:125%;font-family:Arial;-inkscape-font-specification:Arial;text-align:center;letter-spacing:0px;word-spacing:0px;text-anchor:middle;fill:#bfbfbf;fill-opacity:1;stroke:none;stroke-width:0.99999994px;stroke-linecap:butt;stroke-linejoin:miter;stroke-opacity:1"
         id="text829">
        <g
           id="g915">
          <g
             id="g913">
            <g
               aria-label="BOOTSTRAP"
               style="color:#000000;font-style:normal;font-variant:normal;font-weight:normal;font-stretch:normal;font-size:40px;line-height:125%;font-family:Arial;-inkscape-font-specification:Arial;text-align:center;letter-spacing:0px;word-spacing:0px;text-anchor:middle;clip-rule:nonzero;display:inline;overflow:visible;visibility:visible;opacity:1;isolation:auto;mix-blend-mode:normal;color-interpolation:sRGB;color-interpolation-filters:linearRGB;solid-color:#000000;solid-opacity:1;vector-effect:none;fill:#bfbfbf;fill-opacity:1;fill-rule:nonzero;stroke:none;stroke-width:0.99999994px;stroke-linecap:butt;stroke-linejoin:miter;stroke-miterlimit:4;stroke-dasharray:none;stroke-dashoffset:0;stroke-opacity:1;marker:none;color-rendering:auto;image-rendering:auto;shape-rendering:auto;text-rendering:auto;enable-background:accumulate"
               id="text849-2">
              <path
                 style="font-style:normal;font-variant:normal;font-weight:normal;font-stretch:normal;font-size:medium;line-height:125%;font-family:'Open Sans';-inkscape-font-specification:'Open Sans';text-align:center;letter-spacing:0px;word-spacing:0px;text-anchor:middle;fill:#3366cc;fill-opacity:1;stroke:none;stroke-width:1px;stroke-linecap:butt;stroke-linejoin:miter;stroke-opacity:1"
                 d="m -148.62325,111.55145 c -1.71691,0 -3.21473,0.33863 -4.49311,1.01498 -1.27839,0.66893 -2.25994,1.64227 -2.94372,2.92065 -0.67636,1.27096 -1.01371,2.75365 -1.01371,4.44826 0,2.64597 0.68701,4.70416 2.06202,6.17579 1.37501,1.4642 3.29682,2.19657 5.7644,2.19657 1.17434,0 2.20689,-0.0702 3.09879,-0.21145 0.8919,-0.14122 1.76885,-0.34911 2.63102,-0.62412 v -7.92638 h -5.54142 v 1.69421 h 3.64601 v 5.01727 c -1.07771,0.26013 -2.18179,0.38959 -3.31152,0.38959 -2.0811,0 -3.66018,-0.56858 -4.73789,-1.70575 -1.07028,-1.13717 -1.60578,-2.80572 -1.60578,-5.00573 0,-2.09596 0.55755,-3.73426 1.67242,-4.91602 1.11487,-1.18177 2.66499,-1.77366 4.64946,-1.77366 1.36014,0 2.7767,0.31248 4.24834,0.93681 l 0.7356,-1.67242 c -1.50136,-0.6392 -3.12171,-0.9586 -4.86091,-0.9586 z m 8.86319,0.23452 v 10.5023 c 0,1.87298 0.53422,3.34466 1.6045,4.41493 1.07771,1.07028 2.59886,1.6045 4.56104,1.6045 1.96217,0 3.50408,-0.5314 4.62639,-1.59424 1.1223,-1.06285 1.68267,-2.5235 1.68267,-4.38162 v -10.54587 h -1.89541 v 10.61379 c 0,1.36758 -0.37041,2.41808 -1.11366,3.15389 -0.74325,0.72839 -1.80324,1.09317 -3.17825,1.09317 -1.4419,0 -2.53367,-0.36478 -3.27692,-1.09317 -0.74324,-0.72838 -1.11495,-1.77196 -1.11495,-3.1321 v -10.63558 z m 14.76089,0 v 1.68267 h 5.16208 v 14.61607 h 1.89541 v -14.61607 h 5.1608 v -1.68267 z m 14.66092,0 v 16.29874 h 9.08618 v -1.6942 h -7.19205 v -5.99765 h 6.75633 v -1.67243 h -6.75633 v -5.25179 h 7.19205 v -1.68267 z m 12.709125,0 v 16.29874 h 1.750596 v -9.26432 c 0,-1.33784 -0.0605,-2.80952 -0.179417,-4.41493 h 0.08971 l 8.90805,13.67925 h 2.163252 v -16.29874 h -1.773661 V 121.14 c -0.01483,0.46824 0.0046,1.24753 0.05636,2.34011 0.05203,1.08514 0.0851,1.72805 0.09996,1.92873 h -0.08843 l -8.886234,-13.62287 z m -33.374105,16.52173 c -2.96635,0 -5.22976,0.82314 -6.78965,2.46827 -1.55136,1.63661 -2.32729,4.01031 -2.32729,7.12157 0,3.14535 0.78022,5.54051 2.34011,7.18564 1.56841,1.64513 3.81895,2.46827 6.7512,2.46827 2.97487,0 5.23271,-0.81885 6.77555,-2.45545 1.54284,-1.6366 2.31448,-4.02748 2.31448,-7.17283 0,-3.15388 -0.76735,-5.54475 -2.30167,-7.17283 -1.53431,-1.62809 -3.78786,-2.44264 -6.76273,-2.44264 z m 20.86618,0 c -2.96634,0 -5.22975,0.82314 -6.78964,2.46827 -1.55137,1.63661 -2.3273,4.01031 -2.3273,7.12157 0,3.14535 0.78022,5.54051 2.34011,7.18564 1.56842,1.64513 3.81895,2.46827 6.7512,2.46827 2.97487,0 5.23399,-0.81885 6.77684,-2.45545 1.54284,-1.6366 2.31447,-4.02748 2.31447,-7.17283 0,-3.15388 -0.76734,-5.54475 -2.30166,-7.17283 -1.53432,-1.62809 -3.78914,-2.44264 -6.76402,-2.44264 z m -46.93674,0.29476 v 18.69268 h 7.27408 c 2.19919,0 3.9343,-0.48539 5.20437,-1.45712 1.2786,-0.98026 1.91848,-2.31882 1.91848,-4.0151 0,-1.14221 -0.2605,-2.07136 -0.78047,-2.78737 -0.51996,-0.71601 -1.35898,-1.22715 -2.51824,-1.53401 v -0.12816 c 0.87797,-0.2131 1.58524,-0.69118 2.12224,-1.43277 0.53702,-0.74159 0.80482,-1.63639 0.80482,-2.68484 0,-1.59399 -0.61714,-2.76518 -1.85312,-3.51529 -1.22746,-0.75864 -3.11149,-1.13802 -5.65163,-1.13802 z m 58.00933,0 v 4.12915 h 4.564878 v 14.56353 h 5.050584 v -14.56353 h 4.552063 v -4.12915 z m -52.96002,3.82286 h 1.41995 c 1.58547,0 2.37856,0.52401 2.37856,1.57246 0,0.58816 -0.20042,1.03191 -0.60105,1.33025 -0.3921,0.29834 -0.95044,0.44726 -1.67498,0.44726 h -1.52248 z m 21.02125,0.0256 c 1.2445,0 2.17793,0.44676 2.80018,1.34178 0.63078,0.8865 0.94579,2.26369 0.94579,4.13044 0,1.85823 -0.31072,3.22683 -0.93297,4.1048 -0.61373,0.87797 -1.56003,1.31615 -2.83863,1.31615 -2.51458,0 -3.77288,-1.80678 -3.77288,-5.42095 0,-3.64827 1.26689,-5.47222 3.79851,-5.47222 z m 20.86618,0 c 1.24451,0 2.17794,0.44676 2.80019,1.34178 0.63077,0.8865 0.94578,2.26369 0.94578,4.13044 0,1.85823 -0.31071,3.22683 -0.93297,4.1048 -0.61372,0.87797 -1.56003,1.31615 -2.83863,1.31615 -2.51457,0 -3.7716,-1.80678 -3.7716,-5.42095 0,-3.64827 1.26561,-5.47222 3.79723,-5.47222 z m -41.88743,7.01905 h 1.67498 c 0.80126,0 1.4111,0.16609 1.82877,0.49852 0.4262,0.33244 0.6395,0.81052 0.6395,1.43277 0,1.32975 -0.78881,1.99409 -2.36574,1.99409 h -1.77751 z"
                 id="path877"
                 inkscape:connector-curvature="0" />
            </g>
          </g>
        </g>
      </g>
    </g>
  </g>
</svg>
